<?xml version="1.0" standalone="no"?>
<!DOCTYPE svg PUBLIC "-//W3C//DTD SVG 20010904//EN"
 "http://www.w3.org/TR/2001/REC-SVG-20010904/DTD/svg10.dtd">
<svg version="1.0" xmlns="http://www.w3.org/2000/svg"
 width="180.000000pt" height="180.000000pt" viewBox="0 0 180.000000 180.000000"
 preserveAspectRatio="xMidYMid meet">
<metadata>
Created by potrace 1.11, written by Peter Selinger 2001-2013
</metadata>
<g transform="translate(0.000000,180.000000) scale(0.100000,-0.100000)"
fill="#000000" stroke="none">
<path d="M0 900 l0 -900 900 0 900 0 0 900 0 900 -900 0 -900 0 0 -900z m1080
288 c0 -35 8 -67 23 -95 30 -56 260 -293 285 -293 10 0 27 9 37 20 10 11 21
20 25 20 13 0 120 -143 120 -159 0 -40 -13 -41 -357 -41 -316 0 -333 1 -350
19 -10 11 -83 117 -163 235 -80 118 -149 214 -154 212 -5 -1 -80 -105 -166
-232 -86 -126 -165 -230 -174 -232 -20 -4 -46 15 -46 33 0 13 330 497 361 530
26 27 41 16 109 -78 l54 -77 153 0 153 0 0 95 0 95 45 0 45 0 0 -52z"/>
</g>
</svg>
